<?xml version="1.0" encoding="UTF-8"?>
<!DOCTYPE svg PUBLIC "-//W3C//DTD SVG 1.1//EN" "http://www.w3.org/Graphics/SVG/1.1/DTD/svg11.dtd">
<!-- Creator: CorelDRAW 2019 (64-Bit) -->
<svg xmlns="http://www.w3.org/2000/svg" xml:space="preserve" width="0.6in" height="0.162843in" version="1.1" style="shape-rendering:geometricPrecision; text-rendering:geometricPrecision; image-rendering:optimizeQuality; fill-rule:evenodd; clip-rule:evenodd"
viewBox="0 0 600 162.84"
 xmlns:xlink="http://www.w3.org/1999/xlink"
 xmlns:xodm="http://www.corel.com/coreldraw/odm/2003">
 <defs>
  <style type="text/css">
   <![CDATA[
    .fil1 {fill:#EB5E36}
    .fil0 {fill:#275026;fill-rule:nonzero}
   ]]>
  </style>
 </defs>
 <g id="Layer_x0020_1">
  <metadata id="CorelCorpID_0Corel-Layer"/>
  <g id="_2316243388416">
   <path class="fil0" d="M312.17 19.43c0,-1.52 -0.91,-2.28 -2.73,-2.28l-56.29 0c-1.37,0 -2.05,0.38 -2.05,1.14 0,0.46 1.33,1.9 3.99,4.33 2.66,2.43 3.99,4.56 3.99,6.38 0,0.46 -0.08,0.84 -0.23,1.14l-22.79 85.46c-0.46,1.97 -1.9,2.96 -4.33,2.96l-18 0c-1.98,0 -2.96,-0.76 -2.96,-2.28 0,-3.04 1.56,-9.15 4.67,-18.34 3.11,-9.19 4.67,-15.08 4.67,-17.67 0,-1.52 -0.99,-2.28 -2.96,-2.28l-43.3 0c-2.43,0 -3.87,0.98 -4.33,2.96l-7.29 27.35c-0.46,1.52 -0.69,2.96 -0.69,4.33 0,4.71 1.94,8.55 5.81,11.51 3.87,2.96 8.78,4.44 14.7,4.44l75.89 0c7.14,0 13.67,-1.98 19.6,-5.93 5.93,-3.95 9.65,-8.74 11.17,-14.36l23.47 -88.19c0,-0.3 0,-0.53 0,-0.69zm132.63 48.54c2.28,0 3.72,-0.99 4.33,-2.96l7.29 -27.57c0.3,-1.37 0.46,-2.73 0.46,-4.1 0,-4.71 -1.94,-8.58 -5.81,-11.62 -3.87,-3.04 -8.78,-4.56 -14.7,-4.56l-75.89 0c-7.14,0 -13.67,2.02 -19.6,6.04 -5.93,4.03 -9.65,8.78 -11.17,14.24l-18.69 70.87c-0.46,1.52 -0.69,2.96 -0.69,4.33 0,4.71 1.94,8.55 5.81,11.51 3.87,2.96 8.78,4.44 14.7,4.44l75.89 0c7.14,0 13.67,-1.98 19.6,-5.93 5.93,-3.95 9.65,-8.74 11.17,-14.36 5.01,-18.38 7.52,-27.72 7.52,-28.03 0,-1.52 -0.99,-2.28 -2.96,-2.28l-43.52 0c-2.43,0 -3.87,0.98 -4.33,2.96l-9.35 34.64c-0.45,1.97 -1.9,2.96 -4.33,2.96l-18 0c-1.98,0 -2.96,-0.76 -2.96,-2.28 0.04,-0.15 0.04,-0.38 0.04,-0.68l22.83 -85.46c0.46,-1.82 1.9,-2.74 4.29,-2.74l18.19 0c1.82,0 2.74,0.69 2.74,2.05 0,2.58 -1.56,8.51 -4.67,17.78 -3.11,9.27 -4.67,15.42 -4.67,18.46 0,1.52 0.98,2.28 2.96,2.28l43.53 0zm71.1 -12.54c0,-0.15 2.2,-8.58 6.61,-25.3 0.45,-1.82 1.9,-2.74 4.33,-2.74l56.06 0c2.43,0 7.75,-2.73 15.95,-8.2 0.76,-0.45 1.14,-0.91 1.14,-1.37 0,-0.46 -0.53,-0.69 -1.59,-0.69l-97.77 0c-7.14,0 -13.67,2.02 -19.59,6.04 -5.93,4.03 -9.65,8.78 -11.17,14.24l-7.98 30.54c-0.46,1.37 -0.68,2.73 -0.68,4.1 0,4.71 1.94,8.54 5.81,11.51 3.87,2.96 8.77,4.44 14.7,4.44l47.17 0c1.82,0 2.74,0.76 2.74,2.28 0,0.15 -2.2,8.59 -6.61,25.3 -0.46,1.97 -1.9,2.96 -4.33,2.96l-56.06 0c-2.43,0 -7.75,2.66 -15.95,7.98 -0.76,0.61 -1.14,1.06 -1.14,1.37 0,0.46 0.53,0.69 1.59,0.69l97.76 0c7.14,0 13.67,-1.98 19.6,-5.93 5.93,-3.95 9.65,-8.74 11.17,-14.36l7.98 -30.31c0.46,-1.37 0.69,-2.81 0.69,-4.33 0,-4.71 -1.94,-8.55 -5.81,-11.51 -3.87,-2.96 -8.78,-4.44 -14.7,-4.44l-47.17 0c-1.82,0 -2.73,-0.76 -2.73,-2.28z"/>
   <path class="fil0" d="M311.67 162.54l-2.35 0 -1.91 -5.07 -7.67 0 -1.8 5.07 -2.35 0 6.93 -18.08 2.19 0 6.96 18.08zm-4.96 -6.97l-2.84 -7.7c-0.09,-0.26 -0.19,-0.66 -0.28,-1.21l-0.05 0c-0.08,0.51 -0.18,0.91 -0.29,1.21l-2.81 7.7 6.27 0zm28.2 5.74c-1.81,1.02 -3.83,1.54 -6.05,1.54 -2.57,0 -4.67,-0.83 -6.26,-2.5 -1.6,-1.66 -2.39,-3.87 -2.39,-6.61 0,-2.8 0.89,-5.09 2.66,-6.89 1.77,-1.8 4.01,-2.7 6.72,-2.7 1.97,0 3.62,0.32 4.96,0.96l0 2.35c-1.46,-0.93 -3.2,-1.39 -5.2,-1.39 -2.02,0 -3.69,0.7 -4.98,2.09 -1.3,1.39 -1.94,3.2 -1.94,5.43 0,2.28 0.6,4.08 1.8,5.39 1.2,1.31 2.83,1.96 4.89,1.96 1.41,0 2.63,-0.28 3.67,-0.84l0 -5.07 -3.96 0 0 -1.92 6.07 0 0 8.2zm17.17 1.24l-2.52 0 -3.03 -5.07c-0.28,-0.47 -0.54,-0.87 -0.8,-1.2 -0.26,-0.33 -0.53,-0.6 -0.8,-0.81 -0.28,-0.21 -0.57,-0.37 -0.88,-0.46 -0.31,-0.1 -0.67,-0.15 -1.07,-0.15l-1.74 0 0 7.69 -2.11 0 0 -18.08 5.4 0c0.79,0 1.52,0.1 2.19,0.3 0.67,0.2 1.25,0.5 1.74,0.9 0.5,0.41 0.88,0.91 1.15,1.51 0.28,0.6 0.42,1.3 0.42,2.11 0,0.63 -0.1,1.21 -0.29,1.74 -0.19,0.52 -0.46,0.99 -0.8,1.4 -0.35,0.41 -0.77,0.77 -1.26,1.06 -0.49,0.29 -1.04,0.52 -1.66,0.68l0 0.05c0.3,0.14 0.57,0.29 0.79,0.46 0.22,0.18 0.43,0.38 0.63,0.61 0.2,0.23 0.41,0.5 0.61,0.8 0.2,0.3 0.42,0.64 0.66,1.04l3.39 5.44zm-10.85 -16.17l0 6.56 2.88 0c0.53,0 1.02,-0.08 1.46,-0.24 0.45,-0.16 0.84,-0.39 1.17,-0.69 0.33,-0.3 0.58,-0.66 0.77,-1.09 0.19,-0.43 0.28,-0.92 0.28,-1.46 0,-0.97 -0.31,-1.72 -0.94,-2.26 -0.62,-0.54 -1.53,-0.81 -2.72,-0.81l-2.9 0zm20.36 16.46c-2.56,0 -4.62,-0.84 -6.16,-2.54 -1.54,-1.69 -2.31,-3.89 -2.31,-6.59 0,-2.91 0.79,-5.23 2.36,-6.96 1.57,-1.73 3.71,-2.6 6.42,-2.6 2.5,0 4.51,0.85 6.03,2.52 1.53,1.68 2.29,3.88 2.29,6.6 0,2.95 -0.78,5.28 -2.35,7 -1.56,1.71 -3.65,2.57 -6.28,2.57zm0.15 -16.77c-1.9,0 -3.44,0.69 -4.63,2.05 -1.18,1.37 -1.78,3.17 -1.78,5.4 0,2.23 0.57,4.02 1.73,5.38 1.16,1.35 2.67,2.04 4.52,2.04 1.98,0 3.55,-0.65 4.69,-1.94 1.15,-1.3 1.71,-3.11 1.71,-5.44 0,-2.39 -0.55,-4.23 -1.66,-5.54 -1.11,-1.3 -2.64,-1.95 -4.59,-1.95zm25.26 9.15c0,5.07 -2.29,7.61 -6.87,7.61 -4.39,0 -6.58,-2.44 -6.58,-7.33l0 -11.06 2.12 0 0 10.92c0,3.71 1.57,5.56 4.69,5.56 3.02,0 4.53,-1.79 4.53,-5.37l0 -11.11 2.12 0 0 10.77zm6.63 0.48l0 6.84 -2.12 0 0 -18.08 4.97 0c1.93,0 3.43,0.47 4.5,1.41 1.06,0.94 1.59,2.27 1.59,3.98 0,1.71 -0.59,3.11 -1.78,4.21 -1.18,1.09 -2.78,1.64 -4.78,1.64l-2.39 0zm0 -9.33l0 7.41 2.22 0c1.46,0 2.58,-0.33 3.35,-1 0.77,-0.67 1.15,-1.61 1.15,-2.83 0,-2.39 -1.41,-3.58 -4.24,-3.58l-2.48 0zm26.7 16.46c-2.56,0 -4.62,-0.84 -6.16,-2.54 -1.54,-1.69 -2.31,-3.89 -2.31,-6.59 0,-2.91 0.79,-5.23 2.36,-6.96 1.57,-1.73 3.71,-2.6 6.42,-2.6 2.5,0 4.5,0.85 6.03,2.52 1.53,1.68 2.29,3.88 2.29,6.6 0,2.95 -0.78,5.28 -2.35,7 -1.56,1.71 -3.65,2.57 -6.28,2.57zm0.15 -16.77c-1.9,0 -3.44,0.69 -4.63,2.05 -1.18,1.37 -1.78,3.17 -1.78,5.4 0,2.23 0.57,4.02 1.73,5.38 1.15,1.35 2.67,2.04 4.52,2.04 1.98,0 3.55,-0.65 4.69,-1.94 1.15,-1.3 1.71,-3.11 1.71,-5.44 0,-2.39 -0.55,-4.23 -1.66,-5.54 -1.11,-1.3 -2.64,-1.95 -4.59,-1.95zm21.21 0.3l-7.06 0 0 6.25 6.53 0 0 1.91 -6.53 0 0 8.01 -2.12 0 0 -18.08 9.18 0 0 1.92zm23.95 -1.92l-6.7 18.08 -2.33 0 -6.56 -18.08 2.36 0 5.01 14.34c0.16,0.46 0.28,0.99 0.36,1.6l0.05 0c0.07,-0.5 0.21,-1.04 0.42,-1.63l5.11 -14.31 2.28 0zm12.18 18.08l-9.58 0 0 -18.08 9.18 0 0 1.92 -7.06 0 0 6.02 6.53 0 0 1.9 -6.53 0 0 6.33 7.46 0 0 1.92zm18.06 0l-2.6 0 -9.31 -14.42c-0.24,-0.36 -0.43,-0.74 -0.58,-1.13l-0.07 0c0.07,0.39 0.1,1.21 0.1,2.48l0 13.06 -2.12 0 0 -18.08 2.75 0 9.05 14.19c0.38,0.59 0.63,0.99 0.73,1.21l0.05 0c-0.09,-0.52 -0.13,-1.41 -0.13,-2.66l0 -12.74 2.12 0 0 18.08zm15.43 -16.17l-5.22 0 0 16.17 -2.12 0 0 -16.17 -5.2 0 0 -1.92 12.54 0 0 1.92zm16.07 8.85c0,5.07 -2.29,7.61 -6.87,7.61 -4.39,0 -6.58,-2.44 -6.58,-7.33l0 -11.06 2.12 0 0 10.92c0,3.71 1.57,5.56 4.69,5.56 3.02,0 4.53,-1.79 4.53,-5.37l0 -11.11 2.11 0 0 10.77zm17.48 7.31l-2.52 0 -3.03 -5.07c-0.28,-0.47 -0.54,-0.87 -0.8,-1.2 -0.26,-0.33 -0.53,-0.6 -0.8,-0.81 -0.28,-0.21 -0.57,-0.37 -0.88,-0.46 -0.31,-0.1 -0.67,-0.15 -1.07,-0.15l-1.74 0 0 7.69 -2.12 0 0 -18.08 5.4 0c0.79,0 1.52,0.1 2.19,0.3 0.67,0.2 1.25,0.5 1.74,0.9 0.5,0.41 0.88,0.91 1.15,1.51 0.28,0.6 0.42,1.3 0.42,2.11 0,0.63 -0.09,1.21 -0.28,1.74 -0.19,0.52 -0.46,0.99 -0.81,1.4 -0.35,0.41 -0.77,0.77 -1.26,1.06 -0.5,0.29 -1.05,0.52 -1.66,0.68l0 0.05c0.31,0.14 0.57,0.29 0.79,0.46 0.22,0.18 0.44,0.38 0.63,0.61 0.2,0.23 0.41,0.5 0.6,0.8 0.2,0.3 0.42,0.64 0.66,1.04l3.4 5.44zm-10.85 -16.17l0 6.56 2.87 0c0.53,0 1.02,-0.08 1.47,-0.24 0.45,-0.16 0.84,-0.39 1.17,-0.69 0.33,-0.3 0.59,-0.66 0.77,-1.09 0.19,-0.43 0.28,-0.92 0.28,-1.46 0,-0.97 -0.31,-1.72 -0.94,-2.26 -0.63,-0.54 -1.54,-0.81 -2.72,-0.81l-2.9 0zm22.91 16.17l-9.58 0 0 -18.08 9.18 0 0 1.92 -7.06 0 0 6.02 6.53 0 0 1.9 -6.53 0 0 6.33 7.46 0 0 1.92zm2.63 -0.73l0 -2.5c0.29,0.25 0.63,0.48 1.03,0.68 0.4,0.2 0.82,0.38 1.26,0.51 0.44,0.14 0.89,0.25 1.33,0.33 0.45,0.07 0.86,0.11 1.24,0.11 1.3,0 2.28,-0.24 2.93,-0.73 0.64,-0.48 0.96,-1.18 0.96,-2.08 0,-0.49 -0.11,-0.91 -0.32,-1.28 -0.21,-0.36 -0.51,-0.69 -0.89,-0.99 -0.38,-0.3 -0.83,-0.59 -1.34,-0.86 -0.52,-0.27 -1.07,-0.56 -1.67,-0.86 -0.63,-0.32 -1.22,-0.65 -1.76,-0.97 -0.55,-0.33 -1.02,-0.69 -1.43,-1.09 -0.41,-0.39 -0.72,-0.84 -0.95,-1.34 -0.23,-0.5 -0.35,-1.08 -0.35,-1.76 0,-0.83 0.18,-1.54 0.54,-2.15 0.36,-0.61 0.84,-1.11 1.43,-1.5 0.59,-0.4 1.26,-0.69 2.02,-0.88 0.75,-0.2 1.52,-0.3 2.3,-0.3 1.78,0 3.08,0.22 3.9,0.65l0 2.39c-1.07,-0.74 -2.44,-1.11 -4.11,-1.11 -0.46,0 -0.93,0.05 -1.39,0.14 -0.46,0.1 -0.87,0.26 -1.24,0.47 -0.36,0.22 -0.65,0.5 -0.88,0.85 -0.23,0.34 -0.34,0.76 -0.34,1.26 0,0.46 0.09,0.86 0.26,1.2 0.17,0.33 0.43,0.64 0.76,0.92 0.33,0.28 0.75,0.55 1.23,0.8 0.48,0.26 1.04,0.55 1.67,0.86 0.65,0.32 1.26,0.66 1.84,1.01 0.58,0.35 1.09,0.74 1.52,1.17 0.44,0.43 0.78,0.91 1.04,1.43 0.26,0.52 0.38,1.12 0.38,1.79 0,0.89 -0.17,1.65 -0.52,2.26 -0.35,0.62 -0.82,1.12 -1.41,1.5 -0.59,0.39 -1.28,0.67 -2.05,0.84 -0.78,0.17 -1.59,0.26 -2.45,0.26 -0.28,0 -0.64,-0.02 -1.06,-0.07 -0.42,-0.05 -0.85,-0.11 -1.29,-0.2 -0.43,-0.09 -0.85,-0.2 -1.24,-0.33 -0.39,-0.13 -0.7,-0.28 -0.94,-0.43z"/>
   <path class="fil1" d="M124.4 124.41c-14.23,14.23 -32.88,21.34 -51.53,21.34 -18.65,0 -37.3,-7.11 -51.53,-21.34 -14.23,-14.23 -21.34,-32.88 -21.34,-51.53 0,-18.65 7.11,-37.3 21.34,-51.53 14.23,-14.23 32.88,-21.35 51.53,-21.35 18.65,0 37.3,7.12 51.53,21.35 14.23,14.23 21.35,32.88 21.35,51.53 0,18.65 -7.11,37.3 -21.35,51.53zm-92.67 -10.39c-0.26,-0.26 -0.52,-0.52 -0.77,-0.78 -10.72,-11.13 -16.56,-26 -16.27,-41.46 0.28,-15.11 6.37,-29.39 17.04,-40.05l-6.77 -6.77c-13.23,13.23 -19.85,30.57 -19.85,47.91 0,17.34 6.62,34.69 19.85,47.92l6.77 -6.77zm82.29 -82.29c0.26,0.26 0.51,0.52 0.77,0.78 10.72,11.13 16.56,26.01 16.26,41.46 -0.28,15.11 -6.36,29.39 -17.03,40.05l6.77 6.77c13.23,-13.23 19.85,-30.57 19.85,-47.92 0,-17.34 -6.61,-34.68 -19.85,-47.91l-6.77 6.77zm-3.69 78.6c9.72,-9.71 15.25,-22.7 15.51,-36.46 0.26,-14.07 -5.05,-27.61 -14.81,-37.74 -0.23,-0.24 -0.46,-0.48 -0.7,-0.71l-6.5 6.5c8.55,8.55 12.82,19.76 12.82,30.96 0,11.2 -4.28,22.41 -12.82,30.96l6.5 6.5zm-74.91 -74.91c-9.71,9.7 -15.24,22.7 -15.5,36.46 -0.26,14.07 5.05,27.6 14.81,37.74 0.23,0.24 0.46,0.47 0.7,0.71l6.5 -6.5c-8.55,-8.55 -12.82,-19.75 -12.82,-30.96 0,-11.2 4.28,-22.41 12.82,-30.96l-6.5 -6.5zm10.85 56.29c0.11,-0.25 3.84,-35.14 3.72,-36.43 -0.86,-0.33 -5.26,-0.67 -6.56,-0.86 -1.39,-0.2 -2.8,-0.41 -4.19,-0.63 1.68,-2.96 3.78,-5.75 6.31,-8.27 7.55,-7.55 17.45,-11.33 27.34,-11.33 9.89,0 19.79,3.78 27.34,11.33 2.52,2.52 4.63,5.31 6.3,8.27 -1.4,0.22 -2.8,0.43 -4.19,0.63 -1.3,0.19 -5.7,0.53 -6.56,0.86 -0.13,1.28 3.6,36.17 3.72,36.43 0.19,0.22 0.74,0.1 1.12,0.06l6.54 -0.97c-1.77,3.39 -4.08,6.57 -6.93,9.41 -7.55,7.55 -17.45,11.33 -27.34,11.33 -9.89,0 -19.79,-3.78 -27.34,-11.33 -2.85,-2.84 -5.15,-6.02 -6.93,-9.41l6.54 0.97c0.39,0.04 0.94,0.15 1.13,-0.06zm32.44 1.2c0.92,-0.13 0.77,-1.44 0.84,-2.23 1.38,0.99 6.53,3.18 6.11,-2.09 1.17,0.07 6.75,1.57 7.52,-1.67 -0.34,-0.42 -0.8,-0.76 -1.2,-1.12l-19.74 -18.06c-1.04,0.36 -4.26,2.97 -7.6,4.13 -4.31,1.5 -13.16,-1.4 -9.11,-5.41 1.57,-1.55 5.2,-3.64 7.21,-4.77 0.65,-0.36 3.32,-1.86 3.69,-2.26 -8.42,-0.34 -10.81,2.47 -13.88,3.21 -0.42,0.1 -0.67,0.16 -1.09,0.31l-1.93 19.75c-0.12,1.35 -0.26,1.18 1.38,1.88l9.32 5.59c1.96,1.11 6.24,3.45 8.58,4.02 1.09,0.27 2.79,0.1 3.11,-0.87 0.66,-0.51 0.33,-0.87 0.65,-1.41 1.15,0.54 1.27,0.86 2.67,1.25 0.68,0.19 1.92,0.33 2.66,0.19 0.56,-0.11 0.59,-0.22 0.82,-0.46zm14.58 -8.03c0.89,-0.06 2,-0.62 2.92,-0.87 0.21,-1.26 -1.63,-18.24 -1.86,-21.13 -2.43,-0.42 -3.71,0.72 -12.6,-1.52 -4.68,-1.18 -6.09,-2.49 -12.12,-1.5 -1.91,0.31 -12.52,6.65 -13.4,7.99 -0.98,1.5 2.45,2.64 3.77,2.89 6.12,1.15 10.76,-5.2 12.58,-4.45 0.28,0.11 1.63,1.3 1.96,1.61l11.15 10.24c1.05,0.94 6.54,6.12 7.59,6.74z"/>
  </g>
 </g>
</svg>
